<!-- Generator: Adobe Illustrator 18.1.0, SVG Export Plug-In  -->
<svg version="1.1"
	 xmlns="http://www.w3.org/2000/svg" xmlns:xlink="http://www.w3.org/1999/xlink" xmlns:a="http://ns.adobe.com/AdobeSVGViewerExtensions/3.0/"
	 x="0px" y="0px" width="87.985px" height="95.888px" viewBox="0 0 87.985 95.888" enable-background="new 0 0 87.985 95.888"
	 xml:space="preserve">
<defs>
</defs>
<g>
	<path fill="#FFFFFF" d="M84.747,23.487c-2.337,3.418-5.161,6.329-8.475,8.736c0.034,0.488,0.053,1.221,0.053,2.196
		c0,4.534-0.663,9.06-1.988,13.575c-1.326,4.518-3.34,8.851-6.042,13c-2.703,4.151-5.921,7.821-9.652,11.012
		c-3.731,3.191-8.23,5.737-13.496,7.639c-5.267,1.9-10.899,2.851-16.897,2.851c-9.451,0-18.101-2.528-25.947-7.585
		c1.221,0.14,2.58,0.209,4.08,0.209c7.848,0,14.839-2.406,20.978-7.22c-3.661-0.069-6.94-1.194-9.834-3.374
		c-2.896-2.179-4.884-4.961-5.964-8.344c1.15,0.175,2.214,0.262,3.19,0.262c1.499,0,2.982-0.191,4.447-0.575
		c-3.906-0.803-7.141-2.747-9.704-5.833c-2.563-3.087-3.846-6.67-3.846-10.751v-0.209c2.372,1.326,4.918,2.04,7.638,2.145
		c-2.302-1.534-4.132-3.539-5.492-6.016c-1.36-2.476-2.04-5.161-2.04-8.057c0-3.068,0.767-5.911,2.302-8.526
		c4.219,5.196,9.354,9.355,15.406,12.477c6.05,3.121,12.528,4.856,19.434,5.205c-0.279-1.325-0.418-2.616-0.418-3.871
		c0-4.673,1.647-8.658,4.943-11.954c3.296-3.295,7.279-4.943,11.953-4.943c4.883,0,8.998,1.778,12.347,5.336
		c3.801-0.732,7.376-2.093,10.724-4.08c-1.29,4.011-3.767,7.114-7.429,9.312C78.261,25.754,81.504,24.882,84.747,23.487z"/>
</g>
</svg>