<!-- Generator: Adobe Illustrator 18.1.0, SVG Export Plug-In  -->
<svg version="1.1"
	 xmlns="http://www.w3.org/2000/svg" xmlns:xlink="http://www.w3.org/1999/xlink" xmlns:a="http://ns.adobe.com/AdobeSVGViewerExtensions/3.0/"
	 x="0px" y="0px" width="81.289px" height="95.888px" viewBox="0 0 81.289 95.888" enable-background="new 0 0 81.289 95.888"
	 xml:space="preserve">
<defs>
</defs>
<g>
	<path fill="#FFFFFF" d="M80.353,23.905v50.221c0,4.15-1.474,7.699-4.42,10.646c-2.947,2.947-6.496,4.421-10.646,4.421H15.066
		c-4.151,0-7.699-1.474-10.646-4.421C1.473,81.825,0,78.276,0,74.126V23.905c0-4.149,1.473-7.698,4.421-10.646
		c2.946-2.947,6.494-4.421,10.646-4.421h50.221c4.149,0,7.698,1.474,10.646,4.421C78.879,16.207,80.353,19.756,80.353,23.905z
		 M45.042,23.905l4.604-3.348H35.782c-2.965,0-5.772,0.558-8.423,1.674s-4.874,2.825-6.67,5.127s-2.693,4.97-2.693,8.004
		c0,3.243,1.124,5.938,3.374,8.082c2.249,2.145,5.013,3.217,8.291,3.217c0.768,0,1.518-0.052,2.25-0.156
		c-0.454,1.012-0.681,1.953-0.681,2.824c0,1.535,0.697,3.175,2.093,4.918c-6.104,0.418-10.585,1.517-13.444,3.296
		c-1.64,1.012-2.956,2.284-3.949,3.818c-0.994,1.535-1.491,3.191-1.491,4.97c0,1.5,0.322,2.852,0.968,4.055
		c0.645,1.203,1.491,2.188,2.537,2.955c1.046,0.768,2.25,1.413,3.609,1.937c1.36,0.522,2.712,0.889,4.055,1.098
		c1.342,0.21,2.676,0.314,4.002,0.314c2.093,0,4.193-0.27,6.304-0.811c2.109-0.541,4.089-1.343,5.938-2.407
		c1.848-1.063,3.348-2.502,4.499-4.315c1.15-1.812,1.727-3.854,1.727-6.121c0-1.708-0.35-3.27-1.047-4.682
		c-0.698-1.412-1.552-2.571-2.563-3.479c-1.012-0.906-2.022-1.734-3.034-2.485c-1.012-0.749-1.866-1.517-2.562-2.302
		c-0.698-0.784-1.047-1.561-1.047-2.328c0-0.767,0.27-1.508,0.811-2.223s1.194-1.403,1.962-2.066
		c0.767-0.662,1.534-1.395,2.302-2.197c0.767-0.802,1.421-1.839,1.962-3.112c0.54-1.273,0.811-2.712,0.811-4.316
		c0-2.093-0.392-3.827-1.177-5.205c-0.784-1.377-2.049-2.956-3.793-4.734H45.042z M43.367,65.86c0,2.651-1.02,4.612-3.06,5.886
		c-2.041,1.273-4.473,1.909-7.298,1.909c-1.431,0-2.834-0.165-4.211-0.497c-1.379-0.331-2.694-0.828-3.95-1.491
		c-1.256-0.662-2.268-1.586-3.034-2.772c-0.768-1.186-1.15-2.545-1.15-4.08c0-1.604,0.436-2.999,1.308-4.186
		c0.871-1.185,2.014-2.083,3.427-2.693c1.412-0.61,2.842-1.047,4.289-1.309s2.921-0.392,4.421-0.392
		c0.697,0,1.237,0.035,1.621,0.104c0.07,0.035,0.472,0.322,1.203,0.863c0.732,0.541,1.186,0.872,1.36,0.993
		c0.175,0.123,0.576,0.437,1.203,0.942c0.628,0.506,1.055,0.889,1.282,1.15c0.227,0.262,0.558,0.654,0.994,1.177
		c0.436,0.523,0.732,0.978,0.889,1.36c0.157,0.385,0.314,0.846,0.471,1.387C43.289,64.754,43.367,65.303,43.367,65.86z
		 M39.496,37.35c0,2.093-0.575,3.828-1.726,5.205c-1.151,1.379-2.756,2.066-4.813,2.066c-1.849,0-3.471-0.74-4.865-2.223
		s-2.397-3.165-3.008-5.049c-0.61-1.883-0.915-3.731-0.915-5.545c0-2.127,0.558-3.94,1.674-5.44c1.115-1.499,2.72-2.25,4.812-2.25
		c1.849,0,3.479,0.785,4.892,2.354s2.424,3.331,3.034,5.283C39.19,33.706,39.496,35.571,39.496,37.35z M60.265,47.342h6.696v-3.349
		h-6.696v-6.695h-3.348v6.695h-6.696v3.349h6.696v8.37h3.348V47.342z"/>
</g>
</svg>