<!-- Generator: Adobe Illustrator 18.1.0, SVG Export Plug-In  -->
<svg version="1.1"
	 xmlns="http://www.w3.org/2000/svg" xmlns:xlink="http://www.w3.org/1999/xlink" xmlns:a="http://ns.adobe.com/AdobeSVGViewerExtensions/3.0/"
	 x="0px" y="0px" width="81.289px" height="95.888px" viewBox="0 0 81.289 95.888" enable-background="new 0 0 81.289 95.888"
	 xml:space="preserve">
<defs>
</defs>
<g>
	<path fill="#FFFFFF" d="M80.353,74.126c0,4.15-1.474,7.699-4.42,10.646c-2.947,2.947-6.496,4.421-10.646,4.421H55.243V57.386
		h10.619l1.569-11.718H55.243v-7.481c0-1.883,0.487-3.33,1.464-4.342c0.977-1.011,2.65-1.517,5.022-1.517l6.905-0.053V21.446
		c-3.348-0.313-6.486-0.471-9.416-0.471c-4.743,0-8.545,1.404-11.404,4.212c-2.86,2.808-4.29,6.74-4.29,11.796v8.685H31.807v11.718
		h11.718v31.807H15.066c-4.151,0-7.699-1.474-10.646-4.421C1.473,81.825,0,78.276,0,74.126V23.905c0-4.149,1.473-7.698,4.421-10.646
		c2.946-2.947,6.494-4.421,10.646-4.421h50.221c4.149,0,7.698,1.474,10.646,4.421c2.946,2.947,4.42,6.496,4.42,10.646V74.126z"/>
</g>
</svg>